<svg width="24" height="24" viewBox="0 0 24 24" fill="none" xmlns="http://www.w3.org/2000/svg">
<path fill-rule="evenodd" clip-rule="evenodd" d="M14.8536 2.48261C13.3295 1.17128 11.0757 1.17128 9.55155 2.48261C8.89321 3.04903 8.07076 3.3897 7.20471 3.4547C5.19976 3.60517 3.60605 5.19887 3.45558 7.20383C3.39059 8.06987 3.04992 8.89233 2.48349 9.55067C1.17217 11.0748 1.17217 13.3286 2.48349 14.8527C3.04992 15.5111 3.39059 16.3335 3.45558 17.1996C3.60605 19.2045 5.19976 20.7982 7.20471 20.9487C8.07076 21.0137 8.89321 21.3544 9.55155 21.9208C11.0757 23.2321 13.3295 23.2321 14.8536 21.9208C15.512 21.3544 16.3344 21.0137 17.2005 20.9487C19.2054 20.7982 20.7991 19.2045 20.9496 17.1996C21.0146 16.3335 21.3553 15.5111 21.9217 14.8527C23.233 13.3286 23.233 11.0748 21.9217 9.55067C21.3553 8.89233 21.0146 8.06987 20.9496 7.20383C20.7991 5.19887 19.2054 3.60517 17.2005 3.4547C16.3344 3.3897 15.512 3.04903 14.8536 2.48261ZM17.5388 9.9543C17.9545 9.49248 17.917 8.78115 17.4552 8.36551C16.9934 7.94987 16.2821 7.98731 15.8664 8.44913L11.1909 13.6442L8.42283 11.3375C7.94551 10.9397 7.23613 11.0042 6.83837 11.4815C6.44061 11.9588 6.5051 12.6682 6.98241 13.066L10.3606 15.8811C10.9489 16.3714 11.8197 16.3089 12.332 15.7396L17.5388 9.9543Z" fill="url(#paint0_linear_8334_13391)"/>
<defs>
<linearGradient id="paint0_linear_8334_13391" x1="1.5" y1="12.2017" x2="22.9052" y2="12.2017" gradientUnits="userSpaceOnUse">
<stop stop-color="#10B981"/>
<stop offset="1" stop-color="#A3E635"/>
</linearGradient>
</defs>
</svg>
