<svg width="42" height="42" viewBox="0 0 42 42" fill="none" xmlns="http://www.w3.org/2000/svg">
<rect width="42" height="42" rx="21" fill="white"/>
<path d="M30.68 21.229C30.68 20.514 30.6158 19.8265 30.4967 19.1665H21V23.0715H26.4267C26.1883 24.3273 25.4733 25.3907 24.4008 26.1057V28.6448H27.6733C29.58 26.8848 30.68 24.2998 30.68 21.229Z" fill="#4285F4"/>
<path d="M21.0017 31.0831C23.7242 31.0831 26.0067 30.1848 27.675 28.6448L24.4025 26.1056C23.5042 26.7106 22.3583 27.0773 21.0017 27.0773C18.38 27.0773 16.1525 25.3081 15.355 22.9248H12V25.5281C13.6592 28.819 17.06 31.0831 21.0017 31.0831Z" fill="#34A853"/>
<path d="M15.3507 22.916C15.1491 22.311 15.0299 21.6693 15.0299 21.0001C15.0299 20.331 15.1491 19.6893 15.3507 19.0843V16.481H11.9957C11.3082 17.8376 10.9141 19.3685 10.9141 21.0001C10.9141 22.6318 11.3082 24.1626 11.9957 25.5193L14.6082 23.4843L15.3507 22.916Z" fill="#FBBC05"/>
<path d="M21.0017 14.9315C22.4867 14.9315 23.8067 15.4448 24.8608 16.4348L27.7483 13.5473C25.9975 11.9157 23.7242 10.9165 21.0017 10.9165C17.06 10.9165 13.6592 13.1807 12 16.4807L15.355 19.084C16.1525 16.7007 18.38 14.9315 21.0017 14.9315Z" fill="#EA4335"/>
</svg>
