<svg width="810" height="253" viewBox="0 0 810 253" fill="none" xmlns="http://www.w3.org/2000/svg">
<rect x="93.8281" y="73.9229" width="58.3964" height="58.3964" rx="14.0151" fill="#E9D5FF"/>
<g clip-path="url(#clip0_4903_174179)">
<rect x="111.734" y="95.9154" width="21.6797" height="14.0151" rx="2.62784" fill="#F8FAFC"/>
<path d="M121.172 103.787C122.102 104.477 123.375 104.477 124.304 103.787L132.782 97.495C133.46 96.992 133.104 95.9157 132.26 95.9157H113.217C112.373 95.9157 112.017 96.992 112.695 97.495L121.172 103.787Z" fill="#A855F7"/>
</g>
<path d="M118.134 215.337L98.2836 226.681L103.955 236.608C104.617 236.23 112.519 232.24 138.836 219.307C134.298 211.366 123.144 213.352 118.134 215.337Z" fill="black"/>
<rect x="60.3945" y="169.505" width="31.2224" height="68.9188" transform="rotate(-29.9324 60.3945 169.505)" fill="#4484FF"/>
<path d="M118.197 126.062C116.894 128.583 113.385 130.229 111.793 130.737L102.646 130.712L105.848 142.698C108.479 142.53 115.181 141.859 120.947 140.516C128.155 138.838 128.116 138.23 131.642 136.177C137.636 132.686 136.437 130.385 133.722 130.558L123.402 131.216L123.401 131.216C122.187 131.294 119.153 131.487 121.426 128.904C123.699 126.321 119.826 122.911 118.197 126.062Z" fill="#F5C2D0"/>
<path d="M52.8544 181.32C49.8574 173.713 47.7466 165.786 46.5638 157.696L79.3767 157.866L85.5948 194.134L58.5464 195.767L52.8544 181.32Z" fill="#4484FF"/>
<path d="M33.6015 212.616L27.5191 190.427L20.6478 191.673C18.2517 192.108 16.5988 194.432 16.9519 196.842C17.7053 201.982 19.1678 212.249 21.7551 230.922C30.7432 229.291 33.9118 217.974 33.6015 212.616Z" fill="black"/>
<path d="M34.3229 215.328L25.6698 188.544L70.4185 177.136C76.2867 175.64 82.2508 179.208 83.7071 185.086L85.286 191.459C86.7353 197.31 83.1677 203.227 77.3176 204.676L34.3229 215.328Z" fill="#4484FF"/>
<path d="M39.8818 74.3813C42.3276 86.567 53.7176 94.9411 65.9033 92.4953C83.7522 91.2202 84.9145 75.5573 84.7843 70.1913C84.7552 68.9943 84.445 67.8491 83.9226 66.7717C81.128 61.0079 70.7829 42.255 57.0465 48.3669C44.8608 50.8126 37.4361 62.1956 39.8818 74.3813Z" fill="#F5C2D0"/>
<path d="M84.754 66.5862C83.5337 66.7863 82.0059 62.2382 81.0113 61.4539L80.3375 68.6702L80.9902 84.7036C85.4178 79.5351 86.5639 69.1037 86.4167 67.8744C86.2571 66.5411 85.6256 66.4433 84.754 66.5862Z" fill="#F5C2D0"/>
<path fill-rule="evenodd" clip-rule="evenodd" d="M72.6088 50.5637C67.5506 52.3639 58.6097 56.253 52.9499 66.2629C47.4145 76.0526 48.0721 80.7782 49.0362 87.7068C49.0953 88.1311 49.1554 88.5637 49.2154 89.0062C44.2138 85.8317 40.4659 80.6994 39.2081 74.4326C36.7623 62.2469 44.6582 50.3857 56.8439 47.94C62.4655 46.8117 68.018 47.8843 72.6088 50.5637Z" fill="#0F172A"/>
<ellipse cx="1.60745" cy="1.61402" rx="1.60745" ry="1.61402" transform="matrix(-0.90602 0.423235 0.423235 0.90602 73.9648 60.8735)" fill="#334155"/>
<circle cx="5.62606" cy="5.62606" r="5.62606" transform="matrix(-0.980447 0.196781 0.196781 0.980447 53.5039 66.9746)" fill="#F5C2D0"/>
<rect x="53.0586" y="84.5533" width="15.2082" height="17.5864" rx="7.60409" transform="rotate(1.73691 53.0586 84.5533)" fill="#F5C2D0"/>
<mask id="path-16-outside-1_4903_174179" maskUnits="userSpaceOnUse" x="28.7905" y="30.5525" width="45.1851" height="34.8322" fill="black">
<rect fill="white" x="28.7905" y="30.5525" width="45.1851" height="34.8322"/>
<path fill-rule="evenodd" clip-rule="evenodd" d="M68.6102 46.2008L39.018 60.3561C36.9229 54.317 41.1487 46.7673 48.9211 43.0494C56.6936 39.3315 65.2234 40.7797 68.6102 46.2008Z"/>
</mask>
<path fill-rule="evenodd" clip-rule="evenodd" d="M68.6102 46.2008L39.018 60.3561C36.9229 54.317 41.1487 46.7673 48.9211 43.0494C56.6936 39.3315 65.2234 40.7797 68.6102 46.2008Z" fill="#FACC15"/>
<path d="M39.018 60.3561L35.9391 61.4242L37.1344 64.8696L40.4243 63.2959L39.018 60.3561ZM68.6102 46.2008L70.0165 49.1407L73.3064 47.567L71.3741 44.4741L68.6102 46.2008ZM40.4243 63.2959L70.0165 49.1407L67.204 43.2609L37.6117 57.4162L40.4243 63.2959ZM42.0969 59.288C40.7612 55.4379 43.3705 49.3171 50.3274 45.9893L47.5148 40.1096C38.9269 44.2176 33.0847 53.1962 35.9391 61.4242L42.0969 59.288ZM50.3274 45.9893C57.2843 42.6615 63.6871 44.4714 65.8464 47.9275L71.3741 44.4741C66.7596 37.088 56.1028 36.0016 47.5148 40.1096L50.3274 45.9893Z" fill="#EAB308" mask="url(#path-16-outside-1_4903_174179)"/>
<rect x="34.082" y="62.7158" width="43.7382" height="5.46727" rx="1.82242" transform="rotate(-25.5639 34.082 62.7158)" fill="#FACC15"/>
<path d="M45.7311 104.337C49.4464 95.5906 56.2492 95.5348 59.3172 96.0986L65.2333 130.871L98.8135 128.926L101.734 148.136C86.4649 149.147 51.2589 159.73 40.8237 147.713C34.0625 139.927 41.0868 115.27 45.7311 104.337Z" fill="#4484FF"/>
<path fill-rule="evenodd" clip-rule="evenodd" d="M86.3771 126.041C86.3716 125.998 86.3661 125.956 86.3604 125.914C83.7679 106.412 71.9527 91.8946 59.9705 93.4876C45.794 93.9973 40.3954 112.117 42.9555 131.58L42.9553 131.58L46.7201 159.899L90.1115 154.131L86.3771 126.041Z" fill="#4484FF"/>
<path d="M53.5714 102.214C57.4383 93.5466 63.9487 93.9808 67.0624 94.6064L73.1298 129.13L107.406 125.394L111.057 150.401C95.5214 151.103 58.6268 157.693 48.1393 145.471C41.3442 137.552 48.7378 113.049 53.5714 102.214Z" fill="#4484FF"/>
<rect x="55.0156" y="148.999" width="35.2812" height="24.3319" fill="#4484FF"/>
<rect x="258.219" y="73.9231" width="58.3964" height="58.3964" rx="14.0151" fill="#A5F3FC"/>
<rect x="272.82" y="102.04" width="8.65133" height="10.8142" rx="1.21659" fill="#06B6D4"/>
<rect x="282.555" y="97.7137" width="8.65133" height="15.1398" rx="1.21659" fill="#06B6D4"/>
<rect x="292.285" y="93.3885" width="8.65133" height="19.4655" rx="1.21659" fill="#06B6D4"/>
<path d="M282.521 215.337L262.67 226.681L268.342 236.608C269.004 236.23 276.906 232.24 303.223 219.307C298.685 211.366 287.531 213.352 282.521 215.337Z" fill="black"/>
<rect x="224.781" y="169.505" width="31.2224" height="68.9188" transform="rotate(-29.9324 224.781 169.505)" fill="#4484FF"/>
<path d="M282.588 126.062C281.285 128.583 277.775 130.229 276.183 130.737L267.036 130.712L270.239 142.698C272.869 142.531 279.572 141.859 285.338 140.517C292.545 138.838 292.506 138.23 296.033 136.177C302.026 132.687 300.827 130.385 298.113 130.558L287.793 131.216L287.792 131.217C286.578 131.294 283.543 131.487 285.817 128.905C288.09 126.322 284.216 122.911 282.588 126.062Z" fill="#F5C2D0"/>
<path d="M217.245 181.32C214.248 173.713 212.137 165.786 210.954 157.696L243.767 157.866L249.985 194.135L222.937 195.768L217.245 181.32Z" fill="#4484FF"/>
<path d="M197.992 212.616L191.91 190.428L185.038 191.674C182.642 192.108 180.989 194.433 181.343 196.842C182.096 201.982 183.558 212.25 186.146 230.922C195.134 229.291 198.302 217.974 197.992 212.616Z" fill="black"/>
<path d="M198.713 215.329L190.06 188.545L234.809 177.137C240.677 175.641 246.641 179.209 248.098 185.087L249.677 191.461C251.126 197.311 247.558 203.228 241.708 204.677L198.713 215.329Z" fill="#4484FF"/>
<path d="M204.269 74.38C206.714 86.5657 218.104 94.9397 230.29 92.494C248.139 91.2188 249.301 75.5559 249.171 70.19C249.142 68.9929 248.832 67.8478 248.309 66.7703C245.515 61.0066 235.17 42.2537 221.433 48.3655C209.248 50.8113 201.823 62.1942 204.269 74.38Z" fill="#F5C2D0"/>
<path d="M249.141 66.5858C247.92 66.7859 246.393 62.2379 245.398 61.4535L244.724 68.6698L245.377 84.7032C249.804 79.5347 250.951 69.1033 250.803 67.874C250.644 66.5408 250.012 66.4429 249.141 66.5858Z" fill="#F5C2D0"/>
<path fill-rule="evenodd" clip-rule="evenodd" d="M236.996 50.5624C231.938 52.3623 222.995 56.251 217.334 66.2624C211.799 76.0522 212.457 80.7778 213.421 87.7063C213.48 88.1299 213.54 88.5617 213.6 89.0033C208.599 85.8287 204.852 80.6971 203.595 74.4312C201.149 62.2455 209.045 50.3843 221.23 47.9386C226.852 46.8103 232.405 47.883 236.996 50.5624Z" fill="#0F172A"/>
<ellipse cx="1.60745" cy="1.61402" rx="1.60745" ry="1.61402" transform="matrix(-0.90602 0.423235 0.423235 0.90602 238.352 60.8732)" fill="#334155"/>
<circle cx="5.62606" cy="5.62606" r="5.62606" transform="matrix(-0.980447 0.196781 0.196781 0.980447 217.887 66.9747)" fill="#F5C2D0"/>
<rect x="217.441" y="84.5519" width="15.2082" height="17.5864" rx="7.60409" transform="rotate(1.73691 217.441 84.5519)" fill="#F5C2D0"/>
<mask id="path-39-outside-2_4903_174179" maskUnits="userSpaceOnUse" x="193.173" y="30.5524" width="45.1851" height="34.8322" fill="black">
<rect fill="white" x="193.173" y="30.5524" width="45.1851" height="34.8322"/>
<path fill-rule="evenodd" clip-rule="evenodd" d="M232.993 46.2005L203.401 60.3557C201.306 54.3167 205.532 46.7672 213.304 43.0493C221.076 39.3315 229.606 40.7795 232.993 46.2005Z"/>
</mask>
<path fill-rule="evenodd" clip-rule="evenodd" d="M232.993 46.2005L203.401 60.3557C201.306 54.3167 205.532 46.7672 213.304 43.0493C221.076 39.3315 229.606 40.7795 232.993 46.2005Z" fill="#FACC15"/>
<path d="M203.401 60.3557L200.322 61.4237L201.517 64.8693L204.807 63.2956L203.401 60.3557ZM232.993 46.2005L234.399 49.1403L237.689 47.5666L235.757 44.4737L232.993 46.2005ZM204.807 63.2956L234.399 49.1403L231.587 43.2606L201.994 57.4159L204.807 63.2956ZM206.48 59.2877C205.144 55.4376 207.753 49.3169 214.71 45.9892L211.898 40.1095C203.31 44.2174 197.468 53.1958 200.322 61.4237L206.48 59.2877ZM214.71 45.9892C221.667 42.6615 228.07 44.4712 230.229 47.9273L235.757 44.4737C231.142 37.0879 220.486 36.0015 211.898 40.1095L214.71 45.9892Z" fill="#EAB308" mask="url(#path-39-outside-2_4903_174179)"/>
<rect x="198.469" y="62.7153" width="43.7382" height="5.46727" rx="1.82242" transform="rotate(-25.5639 198.469 62.7153)" fill="#FACC15"/>
<path d="M210.118 104.337C213.833 95.5902 220.636 95.5344 223.704 96.0982L229.62 130.871L263.2 128.925L266.121 148.136C250.852 149.146 215.646 159.73 205.21 147.713C198.449 139.927 205.474 115.27 210.118 104.337Z" fill="#4484FF"/>
<path fill-rule="evenodd" clip-rule="evenodd" d="M207.36 131.682L211.111 159.899L254.502 154.131L250.751 125.914L250.737 125.811L250.737 125.811C248.117 106.361 236.322 91.8971 224.361 93.4872C210.185 93.9969 204.786 112.117 207.346 131.58L207.346 131.58L207.36 131.682Z" fill="#4484FF"/>
<path d="M217.958 102.214C221.825 93.5463 228.335 93.9805 231.449 94.606L237.517 129.13L271.793 125.393L275.444 150.401C259.908 151.102 223.014 157.693 212.526 145.471C205.731 137.552 213.125 113.048 217.958 102.214Z" fill="#4484FF"/>
<rect x="219.406" y="148.999" width="35.2812" height="24.3319" fill="#4484FF"/>
<rect x="422.457" y="73.9244" width="58.3964" height="58.3964" rx="14.0151" fill="#FBCFE8"/>
<path fill-rule="evenodd" clip-rule="evenodd" d="M441.761 102.957C441.772 103.264 441.899 103.557 442.117 103.774L452.592 114.25C453.067 114.725 453.838 114.725 454.313 114.25L462.437 106.125C462.912 105.65 462.912 104.88 462.437 104.404L451.962 93.9292C451.744 93.7115 451.452 93.5844 451.145 93.5736L442.724 93.2777C442.019 93.2529 441.441 93.8311 441.465 94.5362L441.761 102.957ZM446.888 98.7011C447.492 98.097 447.492 97.1175 446.888 96.5133C446.284 95.9092 445.305 95.9092 444.7 96.5133C444.096 97.1175 444.096 98.097 444.7 98.7011C445.305 99.3053 446.284 99.3053 446.888 98.7011Z" fill="#EC4899"/>
<path d="M446.763 215.337L426.912 226.681L432.584 236.608C433.246 236.23 441.148 232.24 467.465 219.307C462.927 211.366 451.773 213.352 446.763 215.337Z" fill="black"/>
<rect x="389.023" y="169.505" width="31.2224" height="68.9188" transform="rotate(-29.9324 389.023 169.505)" fill="#4484FF"/>
<path d="M446.83 126.062C445.527 128.583 442.017 130.229 440.425 130.737L431.278 130.711L434.481 142.698C437.111 142.53 443.814 141.859 449.58 140.516C456.787 138.837 456.749 138.23 460.275 136.176C466.268 132.686 465.07 130.385 462.355 130.558L452.035 131.216L452.034 131.216C450.82 131.293 447.786 131.487 450.059 128.904C452.332 126.321 448.459 122.91 446.83 126.062Z" fill="#F5C2D0"/>
<path d="M381.483 181.321C378.486 173.714 376.376 165.787 375.193 157.697L408.006 157.867L414.224 194.135L387.175 195.768L381.483 181.321Z" fill="#4484FF"/>
<path d="M362.23 212.617L356.148 190.428L349.277 191.674C346.881 192.109 345.228 194.433 345.581 196.843C346.334 201.983 347.797 212.25 350.384 230.922C359.372 229.292 362.541 217.975 362.23 212.617Z" fill="black"/>
<path d="M362.952 215.329L354.299 188.545L399.047 177.137C404.916 175.641 410.88 179.209 412.336 185.087L413.915 191.46C415.364 197.311 411.797 203.228 405.946 204.677L362.952 215.329Z" fill="#4484FF"/>
<path d="M368.507 74.3794C370.953 86.5651 382.343 94.9391 394.528 92.4934C412.377 91.2182 413.539 75.5553 413.409 70.1894C413.38 68.9923 413.07 67.8472 412.548 66.7697C409.753 61.0059 399.408 42.253 385.672 48.3649C373.486 50.8106 366.061 62.1936 368.507 74.3794Z" fill="#F5C2D0"/>
<path d="M413.379 66.5852C412.159 66.7853 410.631 62.2373 409.636 61.4529L408.963 68.6692L409.615 84.7026C414.043 79.5341 415.189 69.1027 415.042 67.8734C414.882 66.5401 414.251 66.4423 413.379 66.5852Z" fill="#F5C2D0"/>
<path fill-rule="evenodd" clip-rule="evenodd" d="M401.234 50.5625C396.176 52.3625 387.234 56.2514 381.574 66.262C376.039 76.0518 376.696 80.7774 377.66 87.706C377.719 88.1299 377.779 88.5621 377.839 89.0042C372.838 85.8297 369.09 80.6975 367.832 74.4308C365.386 62.2451 373.282 50.3839 385.468 47.9382C391.09 46.8098 396.643 47.8827 401.234 50.5625Z" fill="#0F172A"/>
<ellipse cx="1.60745" cy="1.61402" rx="1.60745" ry="1.61402" transform="matrix(-0.90602 0.423235 0.423235 0.90602 402.59 60.8726)" fill="#334155"/>
<circle cx="5.62606" cy="5.62606" r="5.62606" transform="matrix(-0.980447 0.196781 0.196781 0.980447 382.129 66.9741)" fill="#F5C2D0"/>
<rect x="381.684" y="84.5516" width="15.2082" height="17.5864" rx="7.60409" transform="rotate(1.73691 381.684 84.5516)" fill="#F5C2D0"/>
<mask id="path-60-outside-3_4903_174179" maskUnits="userSpaceOnUse" x="357.416" y="30.5518" width="45.1851" height="34.8322" fill="black">
<rect fill="white" x="357.416" y="30.5518" width="45.1851" height="34.8322"/>
<path fill-rule="evenodd" clip-rule="evenodd" d="M397.235 46.1999L367.643 60.3551C365.548 54.3161 369.774 46.7666 377.546 43.0487C385.318 39.3309 393.848 40.7789 397.235 46.1999Z"/>
</mask>
<path fill-rule="evenodd" clip-rule="evenodd" d="M397.235 46.1999L367.643 60.3551C365.548 54.3161 369.774 46.7666 377.546 43.0487C385.318 39.3309 393.848 40.7789 397.235 46.1999Z" fill="#FACC15"/>
<path d="M367.643 60.3551L364.564 61.4231L365.759 64.8687L369.049 63.295L367.643 60.3551ZM397.235 46.1999L398.641 49.1397L401.931 47.566L399.999 44.4731L397.235 46.1999ZM369.049 63.295L398.641 49.1397L395.829 43.26L366.237 57.4152L369.049 63.295ZM370.722 59.2871C369.386 55.437 371.996 49.3163 378.952 45.9886L376.14 40.1089C367.552 44.2168 361.71 53.1952 364.564 61.4231L370.722 59.2871ZM378.952 45.9886C385.909 42.6608 392.312 44.4706 394.471 47.9266L399.999 44.4731C395.384 37.0873 384.728 36.0009 376.14 40.1089L378.952 45.9886Z" fill="#EAB308" mask="url(#path-60-outside-3_4903_174179)"/>
<rect x="362.711" y="62.7147" width="43.7382" height="5.46727" rx="1.82242" transform="rotate(-25.5639 362.711 62.7147)" fill="#FACC15"/>
<path d="M374.36 104.337C378.075 95.5906 384.878 95.5348 387.946 96.0986L393.862 130.871L427.442 128.926L430.363 148.136C415.094 149.147 379.888 159.73 369.453 147.713C362.691 139.927 369.716 115.27 374.36 104.337Z" fill="#4484FF"/>
<path fill-rule="evenodd" clip-rule="evenodd" d="M414.976 125.811C412.355 106.361 400.561 91.8975 388.599 93.4876C374.423 93.9972 369.024 112.117 371.584 131.579L371.584 131.58L375.349 159.899L418.74 154.13L415.002 126.008C414.998 125.977 414.994 125.945 414.989 125.914C414.985 125.882 414.981 125.85 414.977 125.818L414.976 125.811L414.976 125.811Z" fill="#4484FF"/>
<path d="M382.2 102.214C386.067 93.5466 392.578 93.9808 395.691 94.6064L401.759 129.13L436.035 125.394L439.686 150.401C424.15 151.103 387.256 157.693 376.768 145.471C369.973 137.552 377.367 113.049 382.2 102.214Z" fill="#4484FF"/>
<rect x="383.645" y="149" width="35.2812" height="24.3319" fill="#4484FF"/>
<path d="M784 13C784 10.2386 786.239 8 789 8C791.761 8 794 10.2386 794 13V215H784V13Z" fill="#510A09"/>
<rect x="768" y="8" width="42" height="117" rx="4" fill="#EAB308"/>
<circle cx="788.5" cy="9.5" r="9.5" fill="#EAB308"/>
<circle cx="788.5" cy="124.5" r="9.5" fill="#EAB308"/>
<circle cx="789.125" cy="36.8747" r="9.8747" transform="rotate(90 789.125 36.8747)" fill="#FB5E56"/>
<circle cx="789.125" cy="66.4999" r="9.8747" transform="rotate(90 789.125 66.4999)" fill="#FEBC2E"/>
<circle cx="789.125" cy="96.1253" r="9.8747" transform="rotate(90 789.125 96.1253)" fill="#28C83F"/>
<defs>
<clipPath id="clip0_4903_174179">
<rect x="111.734" y="95.9154" width="21.6797" height="14.0151" rx="2.62784" fill="white"/>
</clipPath>
</defs>
</svg>
