<svg width="1921" height="605" viewBox="0 0 1921 605" fill="none" xmlns="http://www.w3.org/2000/svg">
<circle cx="703.604" cy="375.921" r="48.2485" transform="rotate(-78.9466 703.604 375.921)" stroke="#F3F4F6" stroke-width="18.6018"/>
<path d="M712.852 328.567C739.005 333.676 756.064 359.019 750.955 385.171" stroke="#10B981" stroke-width="18.6018"/>
<circle cx="691.293" cy="371.117" r="20.2428" transform="rotate(-22.9297 691.293 371.117)" fill="#FFF7ED" stroke="#6E9E17" stroke-width="4.21725"/>
<rect x="682.759" y="354.607" width="2.25641" height="17.9972" rx="1.1282" transform="rotate(-22.9297 682.759 354.607)" fill="#6E9E17" stroke="#6E9E17" stroke-width="0.145139"/>
<rect x="694.262" y="359.818" width="2.21118" height="11.4133" rx="1.10559" transform="rotate(22.3107 694.262 359.818)" fill="#6E9E17" stroke="#6E9E17" stroke-width="0.145139"/>
<g opacity="0.95">
<g style="mix-blend-mode:hard-light">
<path d="M1032 481.824C576 404.007 154.5 193.491 0 110.824V445.324C241.5 492.991 553 534.324 718.5 550.324C966.263 574.277 1878.17 603.991 2256 592.324V558.824C1965.17 568.324 1400 544.624 1032 481.824Z" fill="url(#paint0_linear_4903_172098)" fill-opacity="0.5"/>
</g>
<g style="mix-blend-mode:hard-light" filter="url(#filter0_b_4903_172098)">
<path d="M1032 481.824C576 404.007 154.5 193.491 0 110.824V445.324C241.5 492.991 553 534.324 718.5 550.324C966.263 574.277 1878.17 603.991 2256 592.324V558.824C1965.17 568.324 1400 544.624 1032 481.824Z" fill="white" fill-opacity="0.3"/>
</g>
</g>
<path d="M623.481 549.376C645.481 551.376 653.648 559.543 654.981 563.376C609.315 562.709 512.981 562.876 492.981 562.876C467.981 562.876 474.481 545.876 464.981 538.376C455.481 530.876 425.481 563.376 405.481 528.876C385.481 494.376 424.981 480.876 447.481 481.876C469.981 482.876 479.981 518.376 495.481 519.376C510.981 520.376 503.981 499.876 525.981 499.876C547.981 499.876 547.981 509.876 557.981 515.376C567.981 520.876 568.981 511.376 588.481 517.376C607.981 523.376 595.981 546.876 623.481 549.376Z" fill="#F8FAFC"/>
<path d="M471.827 457.363C465.486 459.182 465.496 466.857 469.999 468.324C472.903 469.27 475.013 469.267 477.583 467.319C480.796 464.884 479.754 455.09 471.827 457.363Z" fill="#F8FAFC"/>
<path d="M450.228 456.692C446.905 459.989 450.473 461.65 452.615 462.455C454.451 463.145 455.408 462.716 456.423 460.654C457.692 458.077 454.382 452.57 450.228 456.692Z" fill="#F8FAFC"/>
<path d="M936.113 387.803C937.105 376.769 946.855 368.629 957.889 369.622C968.923 370.614 977.064 380.364 976.071 391.398L973.958 414.88L934 411.285L936.113 387.803Z" fill="#4484FF"/>
<path d="M939.45 350.083C940.571 361.469 950.71 369.791 962.097 368.669C973.483 367.548 981.804 357.408 980.683 346.022C979.561 334.636 969.422 326.314 958.036 327.436C946.649 328.557 938.328 338.697 939.45 350.083Z" fill="#F5C2D0"/>
<ellipse cx="1.47975" cy="1.42162" rx="1.47975" ry="1.42162" transform="matrix(-0.999708 0.0241439 0.0241439 0.999708 954.371 352.954)" fill="#334155"/>
<ellipse cx="1.47975" cy="1.46531" rx="1.47975" ry="1.46531" transform="matrix(-0.997481 -0.0709267 -0.0709267 0.997481 964.156 353.712)" fill="#334155"/>
<circle cx="5.17912" cy="5.17912" r="5.17912" transform="matrix(-0.995185 0.0980172 0.0980172 0.995185 945.547 342.784)" fill="#F5C2D0"/>
<circle cx="5.17912" cy="5.17912" r="5.17912" transform="matrix(-0.995185 0.0980172 0.0980172 0.995185 984.918 346.675)" fill="#F5C2D0"/>
<path fill-rule="evenodd" clip-rule="evenodd" d="M940.436 343.789C943.28 346.633 947.071 348.21 951.064 347.816C955.118 347.417 958.571 345.067 960.803 341.64C963.203 347.991 968.962 352.21 975.217 351.594C977.465 351.372 979.529 350.551 981.302 349.278C981.28 348.871 981.249 348.463 981.208 348.052C979.92 334.968 969.645 325.269 958.258 326.391C949.38 327.265 942.448 334.459 940.436 343.789Z" fill="#1E293B"/>
<rect x="950.992" y="364.823" width="12.5574" height="12.5574" rx="6.2787" transform="rotate(-15.0814 950.992 364.823)" fill="#F5C2D0"/>
<path fill-rule="evenodd" clip-rule="evenodd" d="M978.203 336.689L948.642 330.523C950.482 324.934 957.79 321.769 965.554 323.388C973.318 325.008 978.752 330.83 978.203 336.689Z" fill="#FACC15"/>
<rect x="943.715" y="329.495" width="40.2635" height="5.03294" rx="1.67765" transform="rotate(11.7821 943.715 329.495)" fill="#FACC15"/>
<path d="M959.867 326.01C960.434 323.289 963.1 321.543 965.821 322.111C968.542 322.678 970.288 325.344 969.721 328.065L968.35 334.634L958.497 332.579L959.867 326.01Z" fill="#EAB308"/>
<path fill-rule="evenodd" clip-rule="evenodd" d="M644.144 276.961C643.964 275.036 645.379 273.33 647.303 273.15C649.228 272.97 650.934 274.385 651.114 276.31L663.948 413.711C664.128 415.636 662.713 417.342 660.789 417.522C658.864 417.702 657.158 416.287 656.978 414.362L652.836 370.02C652.676 370.059 652.511 370.087 652.341 370.102L618.489 373.264C618.32 373.28 618.152 373.284 617.988 373.276L621.479 410.648C621.658 412.573 620.244 414.279 618.319 414.458C616.395 414.638 614.689 413.224 614.509 411.299L602.326 280.867C602.146 278.942 603.56 277.236 605.485 277.056C607.409 276.877 609.115 278.291 609.295 280.216L611.019 298.671C611.179 298.632 611.344 298.605 611.514 298.589L645.366 295.427C645.535 295.411 645.703 295.407 645.868 295.415L644.144 276.961ZM617.343 366.377C617.504 366.338 617.669 366.311 617.838 366.295L651.69 363.133C651.86 363.117 652.027 363.113 652.192 363.122L651.255 353.094C651.095 353.132 650.93 353.16 650.76 353.176L616.908 356.338C616.739 356.353 616.571 356.357 616.407 356.349L617.343 366.377ZM615.762 349.45C615.923 349.411 616.088 349.384 616.257 349.368L650.109 346.206C650.278 346.19 650.446 346.187 650.611 346.195L649.674 336.167C649.514 336.205 649.348 336.233 649.179 336.249L615.327 339.411C615.158 339.427 614.99 339.43 614.825 339.422L615.762 349.45ZM648.528 329.279C648.697 329.263 648.865 329.26 649.03 329.268L648.093 319.241C647.933 319.28 647.767 319.307 647.598 319.323L613.746 322.485C613.577 322.501 613.409 322.504 613.244 322.496L614.181 332.523C614.341 332.485 614.507 332.457 614.676 332.441L648.528 329.279ZM646.512 302.314L647.449 312.342C647.284 312.334 647.116 312.338 646.947 312.353L613.095 315.515C612.926 315.531 612.76 315.559 612.6 315.597L611.663 305.57C611.828 305.578 611.996 305.574 612.165 305.558L646.017 302.396C646.186 302.381 646.352 302.353 646.512 302.314Z" fill="#74534E"/>
<path d="M1075.36 482.358C1074.56 474.329 1080.41 467.171 1088.44 466.37L1118.73 463.345L1122.05 496.658L1091.77 499.682C1083.74 500.484 1076.58 494.626 1075.78 486.597L1075.36 482.358Z" fill="#475569"/>
<rect x="1044.09" y="479.806" width="34.087" height="6.08696" transform="rotate(3.87002 1044.09 479.806)" fill="#475569"/>
<rect x="1112.93" y="326.972" width="144.261" height="151.565" transform="rotate(-1.507 1112.93 326.972)" fill="#CDEF8E"/>
<path d="M1258.29 366.989L1441.62 362.166C1448.24 361.992 1453.75 367.221 1453.93 373.847L1456.45 469.553L1261.12 474.691L1258.29 366.989Z" fill="#CDEF8E"/>
<rect x="1157.42" y="351.984" width="57.2174" height="57.2174" rx="12" transform="rotate(-1.507 1157.42 351.984)" fill="#2DD9CA"/>
<rect x="1116.85" y="476.699" width="339.753" height="26" transform="rotate(-1.507 1116.85 476.699)" fill="#16A34A"/>
<rect x="1079.76" y="302.879" width="201.478" height="24.9565" rx="12.4783" transform="rotate(-1.507 1079.76 302.879)" fill="#16A34A"/>
<circle cx="1154.08" cy="502.471" r="26.7826" transform="rotate(-1.507 1154.08 502.471)" fill="white" stroke="#1E293B" stroke-width="19.4783"/>
<circle cx="1430.94" cy="495.187" r="26.7826" transform="rotate(-1.507 1430.94 495.187)" fill="white" stroke="#1E293B" stroke-width="19.4783"/>
<path fill-rule="evenodd" clip-rule="evenodd" d="M1402.73 178.179C1402.73 178.146 1402.73 178.114 1402.73 178.081C1402.57 173.389 1398.86 169.706 1394.45 169.854C1390.03 170.003 1386.58 173.926 1386.74 178.618C1386.82 181.131 1387.93 183.354 1389.61 184.854C1389.22 186.011 1389.03 187.255 1389.07 188.546C1389.27 194.342 1394.12 198.882 1399.92 198.687C1405.72 198.493 1410.26 193.637 1410.06 187.841C1409.91 183.271 1406.86 179.482 1402.73 178.179ZM1417.51 260.842C1417.51 260.772 1417.51 260.702 1417.51 260.631C1417.49 260.029 1417.42 259.439 1417.31 258.864C1424.18 257.296 1429.19 251.039 1428.95 243.738C1428.77 238.383 1425.8 233.777 1421.49 231.268C1423.3 229.157 1424.36 226.385 1424.26 223.384C1424.05 217.036 1418.73 212.063 1412.38 212.276C1406.04 212.489 1401.06 217.808 1401.28 224.156C1401.38 227.359 1402.79 230.213 1404.98 232.226C1401.18 235.066 1398.79 239.652 1398.97 244.745C1399.04 246.962 1399.59 249.05 1400.52 250.914C1396.82 252.929 1394.37 256.908 1394.52 261.404C1394.65 265.24 1396.64 268.574 1399.6 270.564C1399.15 272.047 1398.93 273.627 1398.99 275.261C1399.26 283.265 1405.96 289.535 1413.97 289.266C1421.97 288.998 1428.24 282.291 1427.97 274.288C1427.76 267.853 1423.38 262.539 1417.51 260.842Z" fill="#F8FAFC"/>
<path fill-rule="evenodd" clip-rule="evenodd" d="M1202.99 217.394C1203.03 220.43 1200.99 223.01 1198.19 223.775C1198.14 225.951 1197.3 227.937 1195.94 229.452C1199.22 231.446 1201.42 235.028 1201.48 239.142C1201.56 245.502 1196.47 250.728 1190.11 250.812C1183.75 250.897 1178.53 245.809 1178.44 239.449C1178.39 235.536 1180.3 232.052 1183.25 229.931C1181.61 228.352 1180.57 226.139 1180.54 223.678C1180.47 218.802 1184.37 214.796 1189.25 214.731C1189.68 214.725 1190.1 214.75 1190.52 214.805C1191.53 212.565 1193.77 210.993 1196.38 210.958C1199.99 210.91 1202.95 213.792 1202.99 217.394Z" fill="#F8FAFC"/>
<rect x="1399.28" y="310.343" width="35.3043" height="52.9565" transform="rotate(-1.92398 1399.28 310.343)" fill="#1E293B"/>
<path d="M800.727 472.598C801.038 464.536 807.825 458.251 815.887 458.562L846.299 459.732L845.012 493.185L814.6 492.015C806.538 491.705 800.254 484.918 800.564 476.856L800.727 472.598Z" fill="#475569"/>
<rect x="765.566" y="470.217" width="34.087" height="6.08696" transform="rotate(2.20307 765.566 470.217)" fill="#475569"/>
<path d="M847.418 411.278C847.672 404.656 853.248 399.494 859.87 399.748L1037.22 406.571C1043.84 406.826 1049 412.401 1048.75 419.023L1046.59 475.156L845.258 467.411L847.418 411.278Z" fill="#CDEF8E"/>
<rect x="845.258" y="467.41" width="201.478" height="24.9565" transform="rotate(2.20307 845.258 467.41)" fill="#16A34A"/>
<circle cx="880.794" cy="493.752" r="26.7826" transform="rotate(2.20307 880.794 493.752)" fill="white" stroke="#1E293B" stroke-width="19.4783"/>
<circle cx="1009.13" cy="498.69" r="26.7826" transform="rotate(2.20307 1009.13 498.69)" fill="white" stroke="#1E293B" stroke-width="19.4783"/>
<path d="M573.591 386.716C574.207 380.117 580.056 375.267 586.655 375.884L763.364 392.391C769.963 393.007 774.812 398.856 774.196 405.455L768.971 461.385L568.366 442.646L573.591 386.716Z" fill="#CDEF8E"/>
<rect x="568.367" y="442.646" width="201.478" height="24.9565" transform="rotate(5.33676 568.367 442.646)" fill="#16A34A"/>
<circle cx="602.408" cy="470.891" r="26.7826" transform="rotate(5.33676 602.408 470.891)" fill="white" stroke="#1E293B" stroke-width="19.4783"/>
<circle cx="730.287" cy="482.836" r="26.7826" transform="rotate(5.33676 730.287 482.836)" fill="white" stroke="#1E293B" stroke-width="19.4783"/>
<path d="M967.075 391.122C968.842 386.068 974.371 383.402 979.425 385.169C984.567 386.966 987.22 392.646 985.296 397.742L981.159 408.705L963.239 402.099L967.075 391.122Z" fill="#4484FF"/>
<path d="M986.776 386.617C986.002 380.911 971.436 374.211 964.5 371.324L965.968 374.9L985.28 397.824C986.087 396.466 987.55 392.322 986.776 386.617Z" fill="#4484FF"/>
<path d="M1171.02 258.541C1170.99 257.437 1171.86 256.517 1172.96 256.487L1202.95 255.664C1204.06 255.634 1204.98 256.505 1205.01 257.609L1205.8 286.6C1205.98 293.225 1200.76 298.743 1194.14 298.924L1184.14 299.199C1177.51 299.381 1172 294.157 1171.82 287.532L1171.02 258.541Z" fill="#166534"/>
<circle cx="1205.12" cy="274.117" r="6" transform="rotate(1.16026 1205.12 274.117)" stroke="#166534" stroke-width="5"/>
<path d="M1116.69 259.783C1116.67 258.678 1117.55 257.766 1118.66 257.745L1148.65 257.173C1149.75 257.152 1150.67 258.03 1150.69 259.135L1151.24 288.131C1151.37 294.758 1146.1 300.232 1139.47 300.358L1129.47 300.549C1122.85 300.675 1117.37 295.406 1117.25 288.78L1116.69 259.783Z" fill="#F8FAFC"/>
<path d="M1120.56 264.241C1120.54 263.136 1121.41 262.224 1122.52 262.203L1144.97 261.775C1146.08 261.754 1146.99 262.632 1147.01 263.736L1147.41 284.927C1147.54 291.553 1142.27 297.027 1135.64 297.154L1133.19 297.201C1126.56 297.327 1121.09 292.058 1120.96 285.432L1120.56 264.241Z" fill="url(#paint1_linear_4903_172098)"/>
<rect x="1132.69" y="287.355" width="8" height="8" rx="2" transform="rotate(-21.8536 1132.69 287.355)" fill="url(#paint2_linear_4903_172098)"/>
<rect x="1125.33" y="277.413" width="8" height="8" rx="2" transform="rotate(8.05504 1125.33 277.413)" fill="url(#paint3_linear_4903_172098)"/>
<rect x="1135.51" y="274.831" width="8" height="8" rx="2" transform="rotate(-6.46602 1135.51 274.831)" fill="url(#paint4_linear_4903_172098)"/>
<path d="M921.5 358.825C927.5 364.025 942.333 368.991 949 370.825L938.5 384.825L914 373.325C914 366.325 915.5 353.625 921.5 358.825Z" fill="#4484FF"/>
<rect x="953" y="384.028" width="20" height="28.9243" rx="10" transform="rotate(-37.6059 953 384.028)" fill="#4484FF"/>
<rect x="966.633" y="393.551" width="16.7538" height="36.2223" rx="8.37692" transform="rotate(107.56 966.633 393.551)" fill="#F5C2D0"/>
<path d="M975.154 394.439C980.475 395.917 983.59 401.43 982.111 406.751C980.633 412.072 975.12 415.187 969.799 413.708L946 407.094L951.355 387.824L975.154 394.439Z" fill="#4484FF"/>
<ellipse cx="932.777" cy="391.2" rx="7.0669" ry="9.81031" transform="rotate(18.2055 932.777 391.2)" fill="#F5C2D0"/>
<rect x="876.973" y="436.667" width="133.704" height="32" rx="16" transform="rotate(-66.8489 876.973 436.667)" fill="#334155"/>
<circle cx="897.976" cy="428.246" r="10.7397" transform="rotate(-66.8489 897.976 428.246)" fill="#94A3B8"/>
<path d="M895.609 432.717L900.649 430.866C901.123 430.692 901.352 430.156 901.151 429.693L897.914 422.26" stroke="#1E293B" stroke-width="2.19178" stroke-linecap="round"/>
<path d="M913.37 377.387C912.921 377.786 911.514 378.555 909.478 378.436C902.862 377.341 902.428 371.344 902.012 368.372C901.65 363.374 901.893 355.969 907.789 351.914C915.158 346.845 919.237 354.352 917.394 355.62C915.552 356.887 914.216 354.549 913.294 355.183C912.373 355.817 911.095 357.51 912.57 360.838C914.046 364.166 917.224 365.236 917.501 367.216C917.723 368.801 916.788 369.336 916.293 369.405C916.646 369.524 917.309 370.172 917.134 371.812C916.968 373.369 915.944 373.347 915.378 373.117C915.726 373.308 916.164 373.992 915.638 375.555C915.067 377.25 913.888 377.482 913.37 377.387Z" fill="#F5C2D0"/>
<path d="M798.393 556.318L788.347 547.528L778.301 533.715L804.671 537.482C803.834 540.412 799.397 543.258 798.393 546.272C797.388 549.286 797.974 553.807 798.393 556.318Z" fill="#0A1830"/>
<rect x="758.148" y="551.295" width="20.0918" height="32.4909" rx="10.0459" transform="rotate(39.3649 758.148 551.295)" fill="#F5C2D0"/>
<path d="M733.002 571.524L745.628 556.464L758.303 567.831C762.463 571.563 762.762 577.99 758.989 582.112C755.187 586.264 748.7 586.501 744.627 582.616L733.002 571.524Z" fill="#4484FF"/>
<path d="M800 557.524C796.4 553.924 797.167 550.358 798 549.024L788 541.524L784.5 557.524C791.167 559.024 803.6 561.124 800 557.524Z" fill="#4484FF"/>
<path d="M770.98 526.701L794.287 544.63L757.501 583.601L745.468 559.866L770.98 526.701Z" fill="#4484FF"/>
<rect x="770.922" y="562.886" width="24.2516" height="53.5318" transform="rotate(-45.1857 770.922 562.886)" fill="#4484FF"/>
<path d="M823.557 585.433L811 597.99L817.279 604.27C817.697 603.852 822.804 599.247 839.882 584.177C834.859 579.154 826.906 582.921 823.557 585.433Z" fill="black"/>
<path d="M727.455 565.139L740.475 553.062L737.157 549.484C735.655 547.864 733.078 547.709 731.378 549.12C728.14 551.807 721.966 556.891 711.095 565.78C715.925 570.989 724.014 567.523 727.455 565.139Z" fill="black"/>
<path fill-rule="evenodd" clip-rule="evenodd" d="M845.236 514.916C841.919 512.402 837.193 513.054 834.68 516.37L827.823 525.419C824.796 523.694 820.873 524.256 818.466 526.964C815.701 530.074 815.981 534.837 819.091 537.601L823.22 541.271C823.452 541.478 823.694 541.667 823.943 541.84C824.116 541.998 824.298 542.15 824.488 542.295C827.805 544.808 832.531 544.157 835.044 540.84L846.69 525.471C849.203 522.155 848.552 517.429 845.236 514.916Z" fill="#F5C2D0"/>
<ellipse cx="842.104" cy="519.167" rx="9.11279" ry="6.2787" transform="rotate(35.3113 842.104 519.167)" fill="#F5C2D0"/>
<path d="M765 495.701C779.064 495.701 793.368 499.149 797.135 501.242C799.228 502.497 804.419 505.26 808.437 506.265C812.455 507.269 823.814 517.26 828 522.701C828 523.957 825.515 528.366 823.506 531.379C821.497 534.393 817.646 537.658 815.971 538.914L810 533.701L805.5 541.201L797.135 553.701L758.5 542.701C765 532.201 770 521.201 775.788 515.055C774.783 514.05 771.602 514.636 768.253 515.055C768.253 511.706 765 503.738 765 495.701Z" fill="#4484FF"/>
<path d="M726.85 566.298L739.382 550.902L756.873 566.656C761.003 570.375 761.31 576.747 757.557 580.846C753.826 584.922 747.498 585.201 743.422 581.47L726.85 566.298Z" fill="#4484FF"/>
<ellipse cx="761.254" cy="533.8" rx="9.11279" ry="6.2787" transform="rotate(-12.4769 761.254 533.8)" fill="#F5C2D0"/>
<path d="M832.5 549.201C826.9 551.601 814.167 538.535 808.5 531.701L812.5 524.701L828 522.701L831.5 517.701L845.5 530.701C843.5 535.868 838.1 546.801 832.5 549.201Z" fill="#4484FF"/>
<path d="M791 480.679C789.12 491.964 796.183 502.895 807.469 504.775C823.246 509.513 829.367 496.415 831.01 491.755C831.376 490.715 831.484 489.628 831.386 488.53C830.866 482.657 828.096 463.137 814.276 463.905C802.991 462.025 792.879 469.393 791 480.679Z" fill="#F5C2D0"/>
<path d="M832.16 488.643C831.044 488.417 831.217 484.003 830.617 483.003L827.678 488.993L822.997 503.003C828.497 500.003 832.894 491.402 833.169 490.296C833.468 489.096 832.957 488.805 832.16 488.643Z" fill="#F5C2D0"/>
<path fill-rule="evenodd" clip-rule="evenodd" d="M826.95 470.883C822.008 470.779 813.044 471.203 804.902 477.965C796.937 484.579 795.958 488.861 794.522 495.138C794.434 495.523 794.344 495.916 794.251 496.317C790.984 491.95 789.436 486.307 790.403 480.502C792.283 469.216 802.956 461.59 814.242 463.47C819.448 464.337 823.876 467.076 826.95 470.883Z" fill="#0F172A"/>
<ellipse cx="1.47975" cy="1.4858" rx="1.47975" ry="1.4858" transform="matrix(-0.997271 0.0738268 0.0738268 0.997271 824.746 480.199)" fill="#334155"/>
<circle cx="5.17912" cy="5.17912" r="5.17912" transform="matrix(-0.986411 -0.164297 -0.164297 0.986411 805.145 478.76)" fill="#F5C2D0"/>
<rect x="801.281" y="493.254" width="14" height="16.1893" rx="7" transform="rotate(35 801.281 493.254)" fill="#F5C2D0"/>
<mask id="path-83-outside-1_4903_172098" maskUnits="userSpaceOnUse" x="789.741" y="452.112" width="39.2793" height="20.0939" fill="black">
<rect fill="white" x="789.741" y="452.112" width="39.2793" height="20.0939"/>
<path fill-rule="evenodd" clip-rule="evenodd" d="M824.936 465.819L794.842 468.324C795.015 462.443 801.119 457.328 809.023 456.67C816.927 456.012 823.794 460.047 824.936 465.819Z"/>
</mask>
<path fill-rule="evenodd" clip-rule="evenodd" d="M824.936 465.819L794.842 468.324C795.015 462.443 801.119 457.328 809.023 456.67C816.927 456.012 823.794 460.047 824.936 465.819Z" fill="#FACC15"/>
<path d="M794.842 468.324L791.844 468.236L791.746 471.592L795.091 471.314L794.842 468.324ZM824.936 465.819L825.185 468.809L828.53 468.53L827.879 465.237L824.936 465.819ZM795.091 471.314L825.185 468.809L824.687 462.829L794.594 465.334L795.091 471.314ZM797.841 468.412C797.951 464.662 802.198 460.248 809.272 459.659L808.774 453.68C800.041 454.407 792.078 460.223 791.844 468.236L797.841 468.412ZM809.272 459.659C816.347 459.071 821.265 462.721 821.993 466.401L827.879 465.237C826.322 457.372 817.508 452.953 808.774 453.68L809.272 459.659Z" fill="#EAB308" mask="url(#path-83-outside-1_4903_172098)"/>
<rect x="789.828" y="468.742" width="40.2635" height="5.03294" rx="1.67765" transform="rotate(-4.75871 789.828 468.742)" fill="#FACC15"/>
<path d="M768.011 529.487C768.347 533.635 765.258 537.27 761.11 537.606C756.963 537.943 753.328 534.854 752.991 530.706L751.034 506.589C750.697 502.442 753.786 498.807 757.934 498.47C762.081 498.133 765.716 501.223 766.053 505.37L768.011 529.487Z" fill="#F5C2D0"/>
<path d="M768.002 516.201C768.002 514.201 774.335 513.868 774.502 514.201V507.201L765.002 495.701C763.502 495.701 765.602 495.501 756.002 496.701C746.402 497.901 747.669 521.001 750.002 530.001L770.002 526.001C769.668 524.501 768.002 518.201 768.002 516.201Z" fill="#4484FF"/>
<defs>
<filter id="filter0_b_4903_172098" x="-12" y="98.8242" width="2280" height="508.118" filterUnits="userSpaceOnUse" color-interpolation-filters="sRGB">
<feFlood flood-opacity="0" result="BackgroundImageFix"/>
<feGaussianBlur in="BackgroundImageFix" stdDeviation="6"/>
<feComposite in2="SourceAlpha" operator="in" result="effect1_backgroundBlur_4903_172098"/>
<feBlend mode="normal" in="SourceGraphic" in2="effect1_backgroundBlur_4903_172098" result="shape"/>
</filter>
<linearGradient id="paint0_linear_4903_172098" x1="1.02887e-05" y1="244.824" x2="1919" y2="566.824" gradientUnits="userSpaceOnUse">
<stop stop-color="#E35975"/>
<stop offset="0.195" stop-color="#E39668"/>
<stop offset="0.45" stop-color="#D6D291"/>
<stop offset="0.69" stop-color="#88DF9E"/>
<stop offset="1" stop-color="#71CEA9"/>
</linearGradient>
<linearGradient id="paint1_linear_4903_172098" x1="1133.75" y1="261.989" x2="1134.42" y2="297.177" gradientUnits="userSpaceOnUse">
<stop stop-color="#422006"/>
<stop offset="1" stop-color="#A8510F"/>
</linearGradient>
<linearGradient id="paint2_linear_4903_172098" x1="1136.69" y1="287.355" x2="1136.69" y2="295.355" gradientUnits="userSpaceOnUse">
<stop stop-color="#BFDBFE"/>
<stop offset="1" stop-color="#60A5FA"/>
</linearGradient>
<linearGradient id="paint3_linear_4903_172098" x1="1129.33" y1="277.413" x2="1129.33" y2="285.413" gradientUnits="userSpaceOnUse">
<stop stop-color="#BFDBFE"/>
<stop offset="1" stop-color="#60A5FA"/>
</linearGradient>
<linearGradient id="paint4_linear_4903_172098" x1="1139.51" y1="274.831" x2="1139.51" y2="282.831" gradientUnits="userSpaceOnUse">
<stop stop-color="#BFDBFE"/>
<stop offset="1" stop-color="#60A5FA"/>
</linearGradient>
</defs>
</svg>
